<svg xmlns="http://www.w3.org/2000/svg" width="346.66" height="346.66" viewBox="0 0 346.66 346.66">
  <title>MWEB-LOGO-Blue Coin-White Icon</title>
  <g>
    <circle cx="173.33" cy="173.33" r="173.33" style="fill: #144880"/>
    <path d="M103.81,267.29a7.41,7.41,0,0,1-5.25-2.18L67.1,233.65a63.15,63.15,0,0,1-13.59-22.56c-4.25-12.75-5.34-31.92,13.59-50.85,17.87-17.88,36-17.9,48.66-14.27-3.63-12.7-3.61-30.78,14.26-48.66,18.94-18.93,38.1-17.84,50.86-13.59a63.15,63.15,0,0,1,22.56,13.59l31.46,31.47a7.41,7.41,0,0,1-10.49,10.48L193,107.8a48.42,48.42,0,0,0-17.2-10.15c-12.61-4-24.46-.62-35.24,10.15S126.32,130.43,130.36,143a48.33,48.33,0,0,0,10.17,17.21L172,191.7a7.42,7.42,0,1,1-10.49,10.49L130,170.73a48.11,48.11,0,0,0-17.19-10.15c-12.62-4-24.47-.63-35.24,10.15s-14.27,22.89-10,35.67a48.36,48.36,0,0,0,10,16.76l31.46,31.46a7.43,7.43,0,0,1-5.24,12.67Zm112.83-17.94c17.87-17.87,17.9-36,14.27-48.65,12.69,3.63,30.78,3.6,48.65-14.27,18.94-18.93,17.84-38.1,13.59-50.85A62.94,62.94,0,0,0,279.56,113L248.1,81.55A7.42,7.42,0,0,0,237.61,92l31.45,31.44a48.41,48.41,0,0,1,10.17,17.22c4,12.61.62,24.46-10.15,35.24s-22.63,14.19-35.24,10.15a48.42,48.42,0,0,1-17.2-10.15h0l-31.46-31.46A7.41,7.41,0,1,0,174.69,155l31.46,31.47a48.36,48.36,0,0,1,10,16.76c4.26,12.77.89,24.78-10,35.67S183.52,253.05,170.91,249a48.49,48.49,0,0,1-17.2-10.15L122.25,207.4a7.42,7.42,0,1,0-10.49,10.49l31.47,31.46c.24.25,16.58,16.21,38.17,16.21C192.27,265.56,204.48,261.51,216.64,249.35Z" style="fill: #fff"/>
  </g>
</svg>
